<?xml version="1.0" encoding="utf-8"?>
<svg version="1.1" xmlns:xlink="http://www.w3.org/1999/xlink" width="47px" height="50px" xmlns="http://www.w3.org/2000/svg">
  <g transform="matrix(1 0 0 1 -518 -360 )">
    <path d="M 45.81861413043478 22.11168164313222  C 46.60620471014493 22.860504920838682  47 23.823277706461273  47 25  C 47 26.155327342747114  46.60620471014493 27.12879760376551  45.81861413043478 27.9204107830552  L 25.032608695652176 48.81258023106547  C 24.202445652173914 49.60419341035516  23.233922101449277 50  22.12703804347826 50  C 21.041440217391305 50  20.083559782608695 49.60419341035516  19.253396739130434 48.81258023106547  L 16.858695652173914 46.405648267008985  C 16.04981884057971 45.592640136927685  15.64538043478261 44.61916987590928  15.64538043478261 43.48523748395379  C 15.64538043478261 42.35130509199829  16.04981884057971 41.377834830979886  16.858695652173914 40.564826700898585  L 26.213994565217394 31  L 3.7357336956521743 31  C 2.6288496376811596 31.1617458279846  1.7295063405797104 30.76059050064185  1.0377038043478262 29.958279845956355  C 0.34590126811594196 29.15596919127086  0 28.18784766795036  0 27.053915275994868  L 0 22.946084724005132  C 0 21.812152332049635  0.34590126811594196 20.84403080872914  1.0377038043478262 20.041720154043645  C 1.7295063405797104 19.23940949935815  2.6288496376811596 18.838254172015407  3.7357336956521743 19  L 26.213994565217394 19  L 16.858695652173914 9.403080872913993  C 16.04981884057971 8.632862644415917  15.64538043478261 7.670089858793327  15.64538043478261 6.514762516046213  C 15.64538043478261 5.359435173299104  16.04981884057971 4.396662387676509  16.858695652173914 3.6264441591784324  L 19.253396739130434 1.2195121951219523  C 20.06227355072464 0.40650406504064707  21.020153985507246 0  22.12703804347826 0  C 23.255208333333336 0  24.223731884057973 0.40650406504064707  25.032608695652176 1.2195121951219523  L 45.81861413043478 22.11168164313222  Z " fill-rule="nonzero" fill="#000000" stroke="none" transform="matrix(1 0 0 1 518 360 )" />
  </g>
</svg>