<?xml version="1.0" encoding="utf-8"?>
<svg version="1.1" xmlns:xlink="http://www.w3.org/1999/xlink" width="47px" height="50px" xmlns="http://www.w3.org/2000/svg">
  <g transform="matrix(1 0 0 1 -265 -360 )">
    <path d="M 45.96229619565217 20.041720154043645  C 46.654098731884055 20.84403080872914  47 21.812152332049635  47 22.946084724005132  L 47 27.053915275994868  C 47 28.18784766795036  46.654098731884055 29.15596919127086  45.96229619565217 29.958279845956355  C 45.270493659420296 30.76059050064185  44.37115036231884 31.1617458279846  43.26426630434783 31  L 20.78600543478261 31  L 30.141304347826086 40.596919127086004  C 30.950181159420293 41.367137355584084  31.354619565217394 42.329910141206675  31.354619565217394 43.48523748395379  C 31.354619565217394 44.6405648267009  30.950181159420293 45.60333761232349  30.141304347826086 46.37355584082157  L 27.746603260869563 48.81258023106547  C 26.95901268115942 49.60419341035516  26.00113224637681 50  24.87296195652174 50  C 23.766077898550726 50  22.797554347826086 49.60419341035516  21.967391304347828 48.81258023106547  L 1.1813858695652175 27.88831835686778  C 0.3937952898550727 27.09670517757809  0 26.133932391955494  0 25  C 0 23.887462558836113  0.3937952898550727 22.913992297817714  1.1813858695652175 22.0795892169448  L 21.967391304347828 1.2195121951219523  C 22.77626811594203 0.40650406504064707  23.744791666666668 0  24.87296195652174 0  C 25.979846014492754 0  26.937726449275367 0.40650406504064707  27.746603260869563 1.2195121951219523  L 30.141304347826086 3.5943517329910133  C 30.950181159420293 4.407359863072314  31.354619565217394 5.380830124090707  31.354619565217394 6.514762516046213  C 31.354619565217394 7.6486949080017075  30.950181159420293 8.622165169020107  30.141304347826086 9.435173299101413  L 20.78600543478261 19  L 43.26426630434783 19  C 44.37115036231884 18.838254172015407  45.270493659420296 19.23940949935815  45.96229619565217 20.041720154043645  Z " fill-rule="nonzero" fill="#000000" stroke="none" transform="matrix(1 0 0 1 265 360 )" />
  </g>
</svg>