<?xml version="1.0" encoding="utf-8"?>
<svg version="1.1" xmlns:xlink="http://www.w3.org/1999/xlink" width="300px" height="170px" xmlns="http://www.w3.org/2000/svg">
  <g transform="matrix(1 0 0 1 -265 -226 )">
    <path d="M 265 226  L 565 226  L 565 396  L 265 396  L 265 226  " fill-rule="nonzero" fill="#cccccc" stroke="none" />
    <path d="M 277 238  L 553 238  L 553 384  L 277 384  L 277 238  " fill-rule="nonzero" fill="#ffffff" stroke="none" />
    <path d="M 433.75 277  C 426.61 277  421 271.39  421 264.25  C 421 257.11  426.61 251.5  433.75 251.5  C 440.89 251.5  446.5 257.11  446.5 264.25  C 446.5 271.39  440.89 277  433.75 277  " fill-rule="nonzero" fill="#cccccc" stroke="none" />
    <path d="M 282 380  L 282 304.65  L 348.75 270.4  L 442.2 333.42  L 495.6 290.95  L 549 333.42  L 549 380  L 282 380  " fill-rule="nonzero" fill="#169bd5" stroke="none" />
  </g>
</svg>